<?xml version="1.0" encoding="UTF-8" standalone="no"?>
<svg
   xmlns:dc="http://purl.org/dc/elements/1.1/"
   xmlns:cc="http://creativecommons.org/ns#"
   xmlns:rdf="http://www.w3.org/1999/02/22-rdf-syntax-ns#"
   xmlns:svg="http://www.w3.org/2000/svg"
   xmlns="http://www.w3.org/2000/svg"
   xmlns:sodipodi="http://sodipodi.sourceforge.net/DTD/sodipodi-0.dtd"
   xmlns:inkscape="http://www.inkscape.org/namespaces/inkscape"
   width="104"
   height="104"
   viewBox="0 0 104 104"
   version="1.1"
   id="svg14"
   sodipodi:docname="logo.svg"
   inkscape:version="0.92.4 (5da689c313, 2019-01-14)">
  <metadata
     id="metadata20">
    <rdf:RDF>
      <cc:Work
         rdf:about="">
        <dc:format>image/svg+xml</dc:format>
        <dc:type
           rdf:resource="http://purl.org/dc/dcmitype/StillImage" />
        <dc:title></dc:title>
      </cc:Work>
    </rdf:RDF>
  </metadata>
  <defs
     id="defs18" />
  <sodipodi:namedview
     pagecolor="#ffffff"
     bordercolor="#666666"
     borderopacity="1"
     objecttolerance="10"
     gridtolerance="10"
     guidetolerance="10"
     inkscape:pageopacity="0"
     inkscape:pageshadow="2"
     inkscape:window-width="2736"
     inkscape:window-height="1699"
     id="namedview16"
     showgrid="false"
     inkscape:zoom="4.4799248"
     inkscape:cx="98.005804"
     inkscape:cy="45.362647"
     inkscape:window-x="-13"
     inkscape:window-y="-13"
     inkscape:window-maximized="1"
     inkscape:current-layer="logo_c_blue" />
  <g
     id="logo_c_blue"
     transform="translate(-108.063,-258)">
    <g
       id="Logo"
       transform="rotate(17,-659.52724,448.46748)">
      <g
         id="Group_88"
         data-name="Group 88"
         transform="rotate(-7,142.75876,8.7315)">
        <path
           id="Intersection_1"
           data-name="Intersection 1"
           d="M 3.516,13.119 C 1.177,16.44 -4.973,31.078 8,41.744 A 47.983,47.983 0 0 0 19.553,46.77 C 48.766,55.577 88.594,21.7 93.944,16.988 65.925,4.142 46.508,0 33.058,0 11.565,0 5.306,10.578 3.516,13.119 Z"
           transform="translate(25.58,44.179)"
           inkscape:connector-curvature="0"
           style="fill:none" />
        <g
           id="Group_35"
           data-name="Group 35"
           transform="matrix(0.891,0.454,-0.454,0.891,44.389,0)">
          <text
             id="Hum"
             transform="matrix(1,0,0,-1,28.093,65.298)"
             font-size="5"
             font-weight="600"
             letter-spacing="0.005em"
             style="font-weight:600;font-size:5px;font-family:Bahnschrift;letter-spacing:0.005em;opacity:0;fill:#9d9cb5;stroke:#e58ee6;stroke-width:1">
            <tspan
               x="0"
               y="0"
               id="tspan4">Hum</tspan>
          </text>
          <path
             id="yellow_stripe"
             data-name="yellow stripe"
             d="M 86.745,0 C 2.481,2.423 0.838,32.667 0.109,37.757 c -0.729,5.09 1.33,29.12 33.58,23.3 C 65.939,55.237 86.745,0 86.745,0 Z"
             transform="rotate(14,-54.454911,117.59805)"
             inkscape:connector-curvature="0"
             style="fill:none;stroke:#fffb88;stroke-width:6" />
          <path
             id="black_stripe"
             data-name="black stripe"
             d="M 86.745,0 C 2.481,2.423 0.838,32.667 0.109,37.757 c -0.729,5.09 1.33,29.12 33.58,23.3 C 65.939,55.237 86.745,0 86.745,0 Z"
             transform="matrix(0.914,-0.407,0.407,0.914,0,35.282)"
             inkscape:connector-curvature="0"
             style="fill:none;stroke:#000000;stroke-width:5" />
        </g>
      </g>
      <circle
         id="Ellipse_79"
         data-name="Ellipse 79"
         cx="4"
         cy="4"
         r="4"
         transform="translate(55.412,79.574)" />
    </g>
  </g>
</svg>
